<svg width="32" height="32" viewBox="0 0 32 32" fill="none" xmlns="http://www.w3.org/2000/svg">
<path d="M23.4286 22.8571H4.57143C4.25584 22.8571 4 23.113 4 23.4286V26.8571C4 27.1727 4.25584 27.4286 4.57143 27.4286H22.8571C23.1727 27.4286 23.4286 27.1727 23.4286 26.8571V22.8571Z" stroke="#0E142C" stroke-width="1.14286"/>
<path d="M23.4286 18.2857H10.2857C9.97012 18.2857 9.71429 18.5416 9.71429 18.8572V22.2857C9.71429 22.6013 9.97013 22.8572 10.2857 22.8572H23.4286V18.2857Z" stroke="#0E142C" stroke-width="1.14286"/>
<path d="M23.4286 13.7143H14.8571C14.5416 13.7143 14.2857 13.9701 14.2857 14.2857V17.7143C14.2857 18.0299 14.5416 18.2857 14.8571 18.2857H23.4286V13.7143Z" stroke="#0E142C" stroke-width="1.14286"/>
<path d="M23.4286 9.14284H18.2857C17.9701 9.14284 17.7143 9.39868 17.7143 9.71427V13.1428C17.7143 13.4584 17.9701 13.7143 18.2857 13.7143H23.4286V9.14284Z" stroke="#0E142C" stroke-width="1.14286"/>
<path d="M22.8571 4.57143H20.5714C20.2558 4.57143 20 4.82727 20 5.14286V8.57143C20 8.88702 20.2558 9.14286 20.5714 9.14286H23.4286V5.14286C23.4286 4.82727 23.1727 4.57143 22.8571 4.57143Z" stroke="#0E142C" stroke-width="1.14286"/>
<circle cx="27.4285" cy="25.1428" r="0.571429" fill="#0E142C"/>
<circle cx="27.4285" cy="20.5714" r="0.571429" fill="#0E142C"/>
<circle cx="27.4285" cy="16" r="0.571429" fill="#0E142C"/>
<circle cx="27.4285" cy="11.4285" r="0.571429" fill="#0E142C"/>
<circle cx="27.4286" cy="6.85715" r="1.14286" fill="#0E142C"/>
</svg>
