<svg width="32" height="32" viewBox="0 0 32 32" fill="none" xmlns="http://www.w3.org/2000/svg">
<path d="M21.7187 6.5787L21.7813 7.07925H22.2857H24C24.3156 7.07925 24.5714 7.33509 24.5714 7.65068V28.2221C24.5714 28.5377 24.3156 28.7935 24 28.7935L8 28.7935C7.68441 28.7935 7.42858 28.5377 7.42858 28.2221V7.35191C7.42858 7.10105 7.59219 6.87953 7.83196 6.80575L20.5811 2.88294C20.9206 2.77849 21.2721 3.00578 21.3161 3.35823L21.7187 6.5787Z" stroke="#0E142C" stroke-width="1.14286"/>
<rect x="7.42858" y="7.07924" width="17.1429" height="21.7143" rx="0.571429" stroke="#0E142C" stroke-width="1.14286"/>
<rect x="9.71429" y="14.8571" width="11.4286" height="1.14286" rx="0.571429" fill="#0E142C"/>
<rect x="9.71429" y="17.7142" width="10.2857" height="1.14286" rx="0.571429" fill="#0E142C"/>
<rect x="9.71429" y="20.5714" width="11.4286" height="1.14286" rx="0.571429" fill="#0E142C"/>
<path d="M14.8571 25.1428L15.7678 24.4598C16.0817 24.2244 16.5329 24.3418 16.6922 24.7003L16.8373 25.0267C16.9698 25.3249 17.3792 25.3597 17.5602 25.0882V25.0882C17.7241 24.8423 18.0854 24.8423 18.2493 25.0882L18.4762 25.4285C18.748 25.8363 19.3472 25.8363 19.6191 25.4285L20.0099 24.8423C20.277 24.4416 20.8658 24.4416 21.133 24.8423V24.8423C21.2582 25.03 21.4689 25.1428 21.6945 25.1428H21.7143" stroke="#0E142C" stroke-width="0.914286" stroke-linecap="round"/>
<circle cx="11.4286" cy="11.4286" r="1.71429" fill="#0E142C"/>
</svg>
