<svg width="32" height="32" viewBox="0 0 32 32" fill="none" xmlns="http://www.w3.org/2000/svg">
<path fill-rule="evenodd" clip-rule="evenodd" d="M27.4286 6.28574H4.57142V6.28574V9.71431H27.4286L27.4286 6.28574ZM4.57142 5.14288C3.94023 5.14288 3.42856 5.65456 3.42856 6.28574V9.71431V9.71432V10.8572V10.8572V25.7143C3.42856 26.3455 3.94023 26.8572 4.57142 26.8572H27.4286C28.0597 26.8572 28.5714 26.3455 28.5714 25.7143V10.8572V9.71431V6.28574C28.5714 5.65456 28.0597 5.14288 27.4286 5.14288H4.57142ZM27.4286 25.7143L4.57142 25.7143V10.8572H27.4286L27.4286 25.7143ZM16 7.42862C15.6844 7.42862 15.4286 7.68445 15.4286 8.00004C15.4286 8.31563 15.6844 8.57147 16 8.57147C16.3156 8.57147 16.5714 8.31563 16.5714 8.00004C16.5714 7.68445 16.3156 7.42862 16 7.42862ZM11.4286 8.00004C11.4286 7.68445 11.6844 7.42862 12 7.42862C12.3156 7.42862 12.5714 7.68445 12.5714 8.00004C12.5714 8.31563 12.3156 8.57147 12 8.57147C11.6844 8.57147 11.4286 8.31563 11.4286 8.00004ZM7.99998 7.42862C7.68439 7.42862 7.42855 7.68445 7.42855 8.00004C7.42855 8.31563 7.68439 8.57147 7.99998 8.57147C8.31557 8.57147 8.57141 8.31563 8.57141 8.00004C8.57141 7.68445 8.31557 7.42862 7.99998 7.42862ZM19.4286 8.00004C19.4286 7.68445 19.6844 7.42862 20 7.42862C20.3156 7.42862 20.5714 7.68445 20.5714 8.00004C20.5714 8.31563 20.3156 8.57147 20 8.57147C19.6844 8.57147 19.4286 8.31563 19.4286 8.00004ZM24 7.42862C23.6844 7.42862 23.4286 7.68445 23.4286 8.00004C23.4286 8.31563 23.6844 8.57147 24 8.57147C24.3156 8.57147 24.5714 8.31563 24.5714 8.00004C24.5714 7.68445 24.3156 7.42862 24 7.42862Z" fill="#0E142C"/>
<path fill-rule="evenodd" clip-rule="evenodd" d="M4 10H28V26H4V10ZM16.2857 20C16.2857 19.3688 16.7974 18.8572 17.4286 18.8572C18.0597 18.8572 18.5714 19.3688 18.5714 20C18.5714 20.6312 18.0597 21.1429 17.4286 21.1429C16.7974 21.1429 16.2857 20.6312 16.2857 20ZM7.99999 12.5715C7.6844 12.5715 7.42856 12.8273 7.42856 13.1429C7.42856 13.4585 7.68439 13.7143 7.99999 13.7143H24C24.3156 13.7143 24.5714 13.4585 24.5714 13.1429C24.5714 12.8273 24.3156 12.5715 24 12.5715H7.99999ZM7.42856 16.5714C7.42856 16.2558 7.6844 16 7.99999 16H24C24.3156 16 24.5714 16.2558 24.5714 16.5714C24.5714 16.887 24.3156 17.1429 24 17.1429H7.99999C7.68439 17.1429 7.42856 16.887 7.42856 16.5714ZM7.99999 19.4286C7.6844 19.4286 7.42856 19.6844 7.42856 20C7.42856 20.3156 7.6844 20.5714 7.99999 20.5714H14.8571C15.1727 20.5714 15.4286 20.3156 15.4286 20C15.4286 19.6844 15.1727 19.4286 14.8571 19.4286H7.99999ZM19.4286 20C19.4286 19.6844 19.6844 19.4286 20 19.4286H24C24.3156 19.4286 24.5714 19.6844 24.5714 20C24.5714 20.3156 24.3156 20.5714 24 20.5714H20C19.6844 20.5714 19.4286 20.3156 19.4286 20ZM7.99999 22.8572C7.6844 22.8572 7.42856 23.113 7.42856 23.4286C7.42856 23.7442 7.68439 24 7.99999 24H24C24.3156 24 24.5714 23.7442 24.5714 23.4286C24.5714 23.113 24.3156 22.8572 24 22.8572H7.99999Z" fill="#0E142C"/>
</svg>
