<svg width="32" height="32" viewBox="0 0 32 32" fill="none" xmlns="http://www.w3.org/2000/svg">
<rect x="0.5" y="0.5" width="31" height="31" rx="15.5" fill="#1BB273" stroke="#1BB273"/>
<path d="M18.1671 21.0027C18.1041 22.1439 17.1595 23.0499 16.0023 23.0499C14.845 23.0499 13.9004 22.1439 13.8374 21.0027H10.4635C10.0636 21.0027 9.73999 20.68 9.73999 20.281V19.5575C9.73999 18.7597 10.3873 18.1124 11.1861 18.1124C11.1851 18.1124 11.1851 15.2221 11.1851 15.2221C11.1851 13.1862 12.4581 11.4015 14.3162 10.708V10.645C14.3162 9.71451 15.0717 8.95996 16.0022 8.95996C16.9336 8.95996 17.6882 9.71451 17.6882 10.645V10.708C19.5463 11.4014 20.8193 13.1862 20.8193 15.2221V18.1124C21.6153 18.1124 22.2644 18.7597 22.2644 19.5575V20.281C22.2644 20.6781 21.9398 21.0027 21.5409 21.0027H18.1671ZM17.2009 21.0027H14.8037C14.8648 21.6114 15.3776 22.0865 16.0023 22.0865C16.627 22.0865 17.1398 21.6114 17.2009 21.0027H17.2009ZM21.301 20.0392V19.5575C21.301 19.2922 21.0836 19.0758 20.8183 19.0758C20.2868 19.0758 19.8558 18.6458 19.8558 18.1124V15.2221C19.8558 13.4938 18.708 11.9904 17.0728 11.519L16.7247 11.4183V10.645C16.7247 10.2461 16.401 9.92334 16.0021 9.92334C15.6041 9.92334 15.2795 10.247 15.2795 10.645V11.4183L14.9314 11.519C13.2962 11.9904 12.1483 13.4929 12.1483 15.2221V18.1124C12.1483 18.644 11.7165 19.0758 11.1859 19.0758C10.9196 19.0758 10.7032 19.2922 10.7032 19.5575V20.0392H21.301Z" fill="white" stroke="white" stroke-width="0.16"/>
</svg>
