<svg width="32" height="32" viewBox="0 0 32 32" fill="none" xmlns="http://www.w3.org/2000/svg">
<path fill-rule="evenodd" clip-rule="evenodd" d="M6.20407 9.58781L15.3446 3.18944C15.7381 2.91399 16.2619 2.91398 16.6554 3.18944L25.7959 9.58781H26.2857C26.9169 9.58781 27.4286 10.0995 27.4286 10.7307V11.8735C27.4286 12.5047 26.9169 13.0164 26.2857 13.0164H25.1428V22.1592H26.2857C26.9169 22.1592 27.4286 22.6709 27.4286 23.3021V24.445C28.0597 24.445 28.5714 24.9566 28.5714 25.5878V27.8735C28.5714 28.5047 28.0597 29.0164 27.4286 29.0164H4.57142C3.94023 29.0164 3.42856 28.5047 3.42856 27.8735V25.5878C3.42856 24.9566 3.94023 24.445 4.57142 24.445V23.3021C4.57142 22.6709 5.08309 22.1592 5.71427 22.1592H6.85713V13.0164H5.71427C5.08309 13.0164 4.57142 12.5047 4.57142 11.8735V10.7307C4.57142 10.0995 5.08309 9.58781 5.71427 9.58781H6.20407ZM16 4.12571L23.803 9.58781H8.19698L16 4.12571ZM5.71427 10.7307V11.8735H26.2857V10.7307H5.71427ZM21.7143 13.0164H24V22.1592H21.7143V13.0164ZM18.2857 13.0164H20.5714V22.1592H18.2857V13.0164ZM14.8571 22.1592V13.0164H17.1428V22.1592H14.8571ZM11.4286 13.0164H13.7143V22.1592H11.4286V13.0164ZM7.99999 13.0164H10.2857V22.1592H7.99999V13.0164ZM5.71427 23.3021V24.445H26.2857V23.3021H5.71427ZM27.4286 25.5878H4.57142V27.8735H27.4286V25.5878Z" fill="#0E142C"/>
<circle cx="16" cy="7.20011" r="1.14286" transform="rotate(90 16 7.20011)" fill="#0E142C"/>
</svg>
