<svg width="32" height="32" viewBox="0 0 32 32" fill="none" xmlns="http://www.w3.org/2000/svg">
<rect width="32" height="32" rx="16" fill="#2A72D4"/>
<rect x="8.49236" y="8.49275" width="15.0145" height="15.0145" rx="2.13043" fill="white" stroke="#2A72D4" stroke-width="1.01449"/>
<path d="M10.5657 11.029C10.5657 10.8049 10.7474 10.6232 10.9715 10.6232H22.902V11.4348H10.9715C10.7474 11.4348 10.5657 11.2531 10.5657 11.029V11.029Z" fill="#2A72D4" stroke="#2A72D4" stroke-width="0.202899"/>
<path d="M15.9996 14C14.3435 14 12.9996 15.3439 12.9996 17C12.9996 18.6561 14.3435 20 15.9996 20C17.6557 20 18.9996 18.6561 18.9996 17C18.9996 15.3439 17.6557 14 15.9996 14ZM15.9996 14.1395C17.5803 14.1395 18.8601 15.4193 18.8601 17C18.8601 18.5807 17.5803 19.8605 15.9996 19.8605C14.419 19.8605 13.1391 18.5807 13.1391 17C13.1391 15.4193 14.419 14.1395 15.9996 14.1395ZM17.48 15.8816C17.4617 15.8824 17.4446 15.89 17.432 15.9034L15.581 17.8045L14.7417 16.9433C14.7144 16.9158 14.6703 16.9155 14.6427 16.9425C14.6152 16.9695 14.6147 17.0136 14.6414 17.0414L15.5309 17.955C15.544 17.9686 15.5622 17.9762 15.581 17.9762C15.5999 17.9762 15.6181 17.9686 15.6312 17.955L17.5324 16.0015C17.5533 15.9813 17.5596 15.95 17.5479 15.9233C17.5362 15.8965 17.5092 15.8799 17.48 15.8816L17.48 15.8816Z" fill="#2A72D4" stroke="#2A72D4" stroke-width="0.746709"/>
</svg>
